<mxfile host="app.diagrams.net" modified="2023-12-15T11:27:30.738Z" agent="Mozilla/5.0 (Windows NT 10.0; Win64; x64) AppleWebKit/537.36 (KHTML, like Gecko) Chrome/120.0.0.0 Safari/537.36 Edg/120.0.0.0" etag="6ZH3cUV0WhIiCkH0PB2v" version="22.1.9" type="github">
  <diagram name="Page-1" id="K-INIjKMj0cpm5IlqEVj">
    <mxGraphModel dx="1386" dy="793" grid="1" gridSize="10" guides="1" tooltips="1" connect="1" arrows="1" fold="1" page="1" pageScale="1" pageWidth="850" pageHeight="1100" math="0" shadow="0">
      <root>
        <mxCell id="0" />
        <mxCell id="1" parent="0" />
        <mxCell id="XndildVDf3Ch291g8vX7-6" value="" style="edgeStyle=orthogonalEdgeStyle;rounded=0;orthogonalLoop=1;jettySize=auto;html=1;" edge="1" parent="1" source="XndildVDf3Ch291g8vX7-1" target="XndildVDf3Ch291g8vX7-2">
          <mxGeometry relative="1" as="geometry" />
        </mxCell>
        <mxCell id="XndildVDf3Ch291g8vX7-1" value="START" style="strokeWidth=2;html=1;shape=mxgraph.flowchart.start_1;whiteSpace=wrap;" vertex="1" parent="1">
          <mxGeometry x="360" y="120" width="100" height="60" as="geometry" />
        </mxCell>
        <mxCell id="XndildVDf3Ch291g8vX7-7" value="" style="edgeStyle=orthogonalEdgeStyle;rounded=0;orthogonalLoop=1;jettySize=auto;html=1;" edge="1" parent="1" source="XndildVDf3Ch291g8vX7-2" target="XndildVDf3Ch291g8vX7-3">
          <mxGeometry relative="1" as="geometry" />
        </mxCell>
        <mxCell id="XndildVDf3Ch291g8vX7-2" value="&lt;br&gt;READ A&lt;br&gt;READ B" style="html=1;strokeWidth=2;shape=manualInput;whiteSpace=wrap;rounded=1;size=26;arcSize=11;" vertex="1" parent="1">
          <mxGeometry x="360" y="230" width="100" height="60" as="geometry" />
        </mxCell>
        <mxCell id="XndildVDf3Ch291g8vX7-8" value="" style="edgeStyle=orthogonalEdgeStyle;rounded=0;orthogonalLoop=1;jettySize=auto;html=1;" edge="1" parent="1" source="XndildVDf3Ch291g8vX7-3" target="XndildVDf3Ch291g8vX7-4">
          <mxGeometry relative="1" as="geometry" />
        </mxCell>
        <mxCell id="XndildVDf3Ch291g8vX7-3" value="A = A + B&lt;br&gt;B = A - B&lt;br&gt;A = A - B" style="rounded=1;whiteSpace=wrap;html=1;absoluteArcSize=1;arcSize=14;strokeWidth=2;" vertex="1" parent="1">
          <mxGeometry x="360" y="360" width="100" height="100" as="geometry" />
        </mxCell>
        <mxCell id="XndildVDf3Ch291g8vX7-9" value="" style="edgeStyle=orthogonalEdgeStyle;rounded=0;orthogonalLoop=1;jettySize=auto;html=1;" edge="1" parent="1" source="XndildVDf3Ch291g8vX7-4" target="XndildVDf3Ch291g8vX7-5">
          <mxGeometry relative="1" as="geometry" />
        </mxCell>
        <mxCell id="XndildVDf3Ch291g8vX7-4" value="PRINT A&lt;br&gt;PRINT B" style="strokeWidth=2;html=1;shape=mxgraph.flowchart.display;whiteSpace=wrap;" vertex="1" parent="1">
          <mxGeometry x="360" y="520" width="100" height="60" as="geometry" />
        </mxCell>
        <mxCell id="XndildVDf3Ch291g8vX7-5" value="END" style="strokeWidth=2;html=1;shape=mxgraph.flowchart.terminator;whiteSpace=wrap;" vertex="1" parent="1">
          <mxGeometry x="360" y="640" width="100" height="60" as="geometry" />
        </mxCell>
      </root>
    </mxGraphModel>
  </diagram>
</mxfile>
